<svg width="42" height="42" viewBox="0 0 42 42" fill="none" xmlns="http://www.w3.org/2000/svg">
<style>
  @media (prefers-color-scheme: dark) {
    .bg { fill: black; }
  }
</style>
<line x1="4" y1="4" x2="4" y2="38" stroke="#FF4F00" stroke-width="2"/>
<line x1="4" y1="5" x2="26" y2="5" stroke="#FF4F00" stroke-width="2"/>
<path d="M26 5C44.8264 9.5 41.7732 35.5 26 37" stroke="#FF4F00" stroke-width="2"/>
<line x1="4" y1="4" x2="4" y2="38" stroke="#FF4F00" stroke-width="2"/>
<line x1="5" y1="37" x2="26" y2="37" stroke="#FF4F00" stroke-width="2"/>
<line x1="4" y1="5" x2="26" y2="5" stroke="#FF4F00" stroke-width="2"/>
<path d="M7.5 7.5L7.5 35" stroke="#FF4F00" stroke-width="2"/>
<path d="M8 34H25" stroke="#FF4F00" stroke-width="2"/>
<path d="M8 8.5H26" stroke="#FF4F00" stroke-width="2"/>
<path d="M25.5001 8.5C40.5001 12.5 37.5 32 25.0001 34" stroke="#FF4F00" stroke-width="2"/>
<path d="M11 11L11 31.5" stroke="#FF4F00" stroke-width="2"/>
<path d="M11.5002 30.4999L24 30.4999" stroke="#FF4F00" stroke-width="2"/>
<path d="M11.5 12H24.5" stroke="#FF4F00" stroke-width="2"/>
<path d="M24.5 12C35.5 14 32.7249 30.1945 24 30.5" stroke="#FF4F00" stroke-width="2"/>
<path d="M14.5 14.5V28" stroke="#FF4F00" stroke-width="2"/>
<path d="M15 27L23.5 27.0002" stroke="#FF4F00" stroke-width="2"/>
<path d="M15 15.5H24" stroke="#FF4F00" stroke-width="2"/>
<path d="M24.0005 15.5C30.5 16.5 29.0005 27 23.5001 27" stroke="#FF4F00" stroke-width="2"/>
</svg>
